/* XPM */
static char *_814053eb7a543129edf972330f2deadB4IwZUcGp6SNOl3K[] = {
/* columns rows colors chars-per-pixel */
"32 32 16 1 ",
"  c None",
". c #2E1E22",
"X c #640A0E",
"o c #4C244B",
"O c #6A3465",
"+ c #793A76",
"@ c #971E2A",
"# c #913A76",
"$ c #CB3044",
"% c #FF4460",
"& c #914994",
"* c #B06585",
"= c #AA54B0",
"- c #C37CA4",
"; c #CB7BC1",
": c #DB98C9",
/* pixels */
"                                ",
"                                ",
"                                ",
"             ooooooo            ",
"           oo++===++oo          ",
"          o+==;;;;;==+o         ",
"         o+=;;;;;;;;;=+o        ",
"         o=;;;:::::;;;=o        ",
"        o+=;;:::::::;;=+o       ",
"    oo  o=;;:::::::::;;=o  oo   ",
"   o=;+oo=;:::::::::::;=oo+;=o  ",
"    o=;=o=;:::::::::::;=o=;=o   ",
"     o+=o=;:::::::::::;=o=+o    ",
"      o+o#XXX-:::::-XXX#o+o     ",
"       ooX..$@*:::*@$..Xoo      ",
"        oO..%$X-:-X$%..+o       ",
"         o&....:::....&o        ",
"         oo=;:::::::;=oo        ",
"        o++o+=;;;;;=+o++o       ",
"       o;:;=ooooooooo=;:+o      ",
"      o=:;=;:::;;;:::;=;:o      ",
"     o+==+o;::::;::::;o=;+o     ",
"     o++ooo=;::===::;=o;:;o     ",
"      oo  o+===;:;===+o:::o     ",
"          o=;;;:::;;;=o::;o     ",
"          o+:;=;;;=;:+o=;+o     ",
"          o+::+++++:;+ ooo      ",
"           +::=ooo+;=+          ",
"           +=;=o o+=+o          ",
"           o;::+  ooo           ",
"           o:::+                ",
"                                "
};
