/* XPM */
static char *a420d51bfc984137fca5156ff3445ba52ejsmlWcBnjbPaij[] = {
/* columns rows colors chars-per-pixel */
"32 32 7 1 ",
"  c None",
". c #312504",
"X c #523C06",
"o c #BE910C",
"O c #F1C61E",
"+ c #F4D34B",
"@ c #F9F6EA",
/* pixels */
"                                ",
"                                ",
"             XXXXXXX            ",
"           XXooOOOooXX          ",
"          XoOOOOOOOOOoX         ",
"         XoOOO+++++OOOoX        ",
"         XOO+OX+++++XOOX        ",
"        XoO+XXO+++++OXXoX       ",
"        XOO++++++++++++OX       ",
"        XO++...+++++...OX       ",
"        XO+.@@..+++.@@..X       ",
"        XO+.@@o.+++.@@o.X       ",
"        XO+..oX.+++..oX.X       ",
"        Xo+O...+++++...oX       ",
"         XO+++++OXO+++OX        ",
"         XoO++++X+X++OoX        ",
"          XoO+++++++OoX         ",
"           XXoOOOOOoXX          ",
"          XOoXXXXXXXoOX         ",
"         XO+++OOOOO+++OX        ",
"         o+O+++++++++o+o        ",
"        X++o+++++++++oOOX       ",
"       XO++X+++++++++XoOoX      ",
"       X+++XO+++++++OXXooX      ",
"       XO++XoO+++++OoX XX       ",
"        XXXXoooooooOoX          ",
"            XooXXX++X           ",
"             XooXo+OX           ",
"              XXX++o            ",
"                X++X            ",
"                                ",
"                                "
};
