/* XPM */
static char *_41f5e60774249a3a2c38c7e56113337NDYNHWq7MQlI4uVJ[] = {
/* columns rows colors chars-per-pixel */
"32 32 7 1 ",
"  c None",
". c #312504",
"X c #523C06",
"o c #BE910C",
"O c #F1C61E",
"+ c #F4D34B",
"@ c #F9F6EA",
/* pixels */
"                                ",
"                                ",
"            XXXXXXX             ",
"          XXooOOOooXX           ",
"         XoOOOOOOOOOoX          ",
"        XoOOO+++++OOOoX         ",
"        XOOOX+++++XOOOX         ",
"       XoOXXO+++++OXXOoX        ",
"       XOO+++++++++++OOX        ",
"       XO+...+++++...+OX        ",
"       XO.@@..+++.@@..OX        ",
"       XO.@@o.+++.@@o.OX        ",
"       XO..oX.+++..oX.OX        ",
"       XoO...+++++...OoX        ",
"        XO++++OXO++++OX         ",
"        XoO+++X+X+++OoX         ",
"         XoO+++++++OoX          ",
"          XXoOOOOOoXX           ",
"         XOoXXXXXXXoOX          ",
"        XO+++OOOOO+++OX         ",
"        o+o+++++++++O+o         ",
"       XOOo+++++++++o++X        ",
"      XoOoX+++++++++X++OX       ",
"      XooXXO+++++++OX+++X       ",
"       XX XoO+++++OoX++OX       ",
"          XoOoooooooXXXX        ",
"           X++XXXooX            ",
"           XO+oXooX             ",
"            o++XXX              ",
"            X++X                ",
"                                ",
"                                "
};
