/* XPM */
static char *bf86f865a6b94185890147e51e44b4fbIBkNaTAlZKwsRIKG[] = {
/* columns rows colors chars-per-pixel */
"32 32 7 1 ",
"  c None",
". c #312504",
"X c #523C06",
"o c #BE910C",
"O c #F1C61E",
"+ c #F4D34B",
"@ c #F9F6EA",
/* pixels */
"                                ",
"                                ",
"             XXXXXXX            ",
"           XXooOOOooXX          ",
"          XoOOOOOOOOOoX         ",
"         XoOOO+++++OOOoX        ",
"         XOOOX+++++XOOOX        ",
"        XoOXXO+++++OXXOoX       ",
"        XOO+++++++++++OOX       ",
"        XO+...+++++...+OX       ",
"        XO.@@..+++.@@..OX       ",
"        XO.@@o.+++.@@o.OX       ",
"        XO..oX.+++..oX.OX       ",
"        XoO...+++++...OoX       ",
"         XO++++OXO++++OX        ",
"         XoO+++X+X+++OoX        ",
"          XoO+++++++OoX         ",
"           XXoOOOOOoXX          ",
"          XOoXXXXXXXoOX         ",
"         XO+++OOOOO+++OX        ",
"         o+o+++++++++o+o        ",
"        X++o+++++++++o++X       ",
"       Xo+OX+++++++++XO+oX      ",
"       X++oXO+++++++OXo++X      ",
"       X++XXoO+++++OoXX++X      ",
"        XX XoooooooooX XX       ",
"            XOOXXXOOX           ",
"            X++X X++X           ",
"            X++X X++X           ",
"            X++X X++X           ",
"             XX   XX            ",
"                                "
};
